<svg xmlns="http://www.w3.org/2000/svg" viewBox="0 0 446 170" role="img" aria-label="Wheelie!">
<defs><g id="w"><circle r="22" fill="#fff" stroke="#111" stroke-width="6"/><path d="M-19 0H19M-9.5-16.5 9.5 16.5M-9.5 16.5 9.5-16.5" stroke="#111" stroke-width="1.6"/><circle r="4" fill="#111"/></g></defs>
<path transform="translate(8 128)" d="M20.1 -13.5 44.4 -85.3H53.3L54.2 -73.3L28.7 0H19ZM26.9 -85.3 26.2 -11.8 22.6 0H12.1L10.5 -85.3ZM54.4 -13.7 76.1 -85.3H92.8L64.8 0H54.1ZM58.4 -85.3 60.4 -11.6 57.6 0H48.1L45.4 -74.9L49.6 -85.3ZM118.2 -90 102.6 0H86.5L102.2 -90ZM106.2 -33.9 102.2 -33.7Q102.7 -38.4 104.2 -43.9Q105.6 -49.3 108.3 -54.1Q111.1 -58.8 115.2 -61.8Q119.4 -64.8 125.3 -64.6Q130.3 -64.5 133.3 -62.2Q136.4 -59.9 137.8 -56.3Q139.2 -52.6 139.5 -48.4Q139.8 -44.1 139.4 -40L132.7 0H116.7L123.3 -40.2Q123.5 -42.5 123.5 -44.9Q123.4 -47.4 122.2 -49.2Q121.1 -50.9 118.1 -50.9Q114.8 -51.1 112.6 -49.4Q110.5 -47.7 109.2 -45Q108 -42.3 107.3 -39.3Q106.6 -36.4 106.2 -33.9Z" fill="#111"/>
<path d="M189 100 255 72" stroke="#111" stroke-width="6" stroke-linecap="round"/>
<use href="#w" transform="translate(189 100) scale(1.35)"/>
<use href="#w" transform="translate(255 72) scale(1.35)"/>
<path transform="translate(294 128)" d="M32.2 -90 16.6 0H0.5L16.1 -90ZM56.9 -63.4 45.9 0H29.8L40.8 -63.4ZM42.9 -79.5Q42.9 -83.4 45.4 -86Q47.8 -88.6 51.7 -88.7Q55.4 -88.7 57.9 -86.3Q60.4 -83.9 60.4 -80.1Q60.5 -76.3 58 -73.7Q55.6 -71.1 51.6 -71Q47.9 -70.9 45.5 -73.3Q43 -75.8 42.9 -79.5ZM84.1 1.2Q77.7 1.1 73.2 -1.3Q68.7 -3.6 66 -7.7Q63.4 -11.8 62.4 -17Q61.4 -22.2 61.9 -28.1L62.5 -33.3Q63.3 -39.4 65.4 -45.1Q67.4 -50.7 70.9 -55.2Q74.4 -59.7 79.5 -62.2Q84.6 -64.7 91.5 -64.6Q98 -64.5 102.1 -61.7Q106.2 -59 108.3 -54.6Q110.3 -50.1 110.8 -44.7Q111.3 -39.2 110.6 -33.8L109.5 -26.2H68.2L70.2 -37.8L95.3 -37.7L95.6 -39.4Q96 -41.8 95.9 -44.5Q95.7 -47.1 94.5 -49Q93.2 -50.9 90 -51.1Q86.6 -51.2 84.4 -49.5Q82.3 -47.7 81.1 -44.9Q79.9 -42.1 79.4 -39Q78.9 -35.9 78.6 -33.3L78 -28Q77.7 -25.4 77.7 -22.7Q77.7 -20 78.5 -17.8Q79.2 -15.5 81 -14.1Q82.8 -12.6 86.1 -12.6Q90.1 -12.4 93.7 -14Q97.2 -15.6 100.2 -18.2L105.7 -8.2Q103.3 -4.9 99.7 -2.8Q96.2 -0.7 92.1 0.3Q88 1.2 84.1 1.2ZM147.1 -85.3 135 -26.2H121.7L130.1 -85.3ZM116.5 -7.7Q116.4 -11.5 118.9 -14.2Q121.3 -17 125.2 -17.1Q129 -17.2 131.4 -14.6Q133.8 -12 133.9 -8.3Q133.9 -4.5 131.5 -1.8Q129.1 1 125.1 1.1Q121.3 1.1 118.9 -1.4Q116.5 -4 116.5 -7.7Z" fill="#111"/>
<path d="M8 142H262L312 152H438" fill="none" stroke="#29aa27" stroke-width="6" stroke-linejoin="round"/>
</svg>
